<?xml version="1.0" encoding="utf-8"?>
<!-- Generator: Adobe Illustrator 17.0.0, SVG Export Plug-In . SVG Version: 6.00 Build 0)  -->
<!DOCTYPE svg PUBLIC "-//W3C//DTD SVG 1.1//EN" "http://www.w3.org/Graphics/SVG/1.1/DTD/svg11.dtd">
<svg version="1.1" id="Слой_1" xmlns="http://www.w3.org/2000/svg" xmlns:xlink="http://www.w3.org/1999/xlink" x="0px" y="0px"
	 width="66.5px" height="66.5px" viewBox="0 0 66.5 66.5" style="enable-background:new 0 0 66.5 66.5;" xml:space="preserve">
<style type="text/css">
	.st0{fill:#EF7C15;}
</style>
<path class="st0" d="M33.2,0C14.9,0,0,14.9,0,33.2c0,18.4,14.9,33.2,33.2,33.2c18.4,0,33.2-14.9,33.2-33.2C66.5,14.9,51.6,0,33.2,0
	 M33.2,64.6C16,64.6,1.9,50.5,1.9,33.2C1.9,16,16,1.9,33.2,1.9c17.3,0,31.3,14.1,31.3,31.3C64.6,50.5,50.5,64.6,33.2,64.6"/>
<path class="st0" d="M29.5,22.2l-0.3,2.5L27.4,23c-0.9-0.8-2.3-1-3.1-0.3l-1.7,1.4c-0.8,0.7-0.9,2-0.2,3.1l1.4,2.2l-2.5-0.1h-0.1
	c-1.2,0-2.3,0.8-2.5,1.8l-0.4,2.2c-0.2,1.1,0.6,2.2,1.8,2.5l2.4,0.8l-2,1.6c-1,0.8-1.3,2.1-0.8,3l1.1,1.9c0.4,0.6,1.1,1,1.9,1
	c0.4,0,0.8-0.1,1.1-0.2l2.3-1l-0.5,2.5c-0.3,1.3,0.3,2.5,1.3,2.8l2,0.8c0.2,0.1,0.4,0.1,0.6,0.1c0.9,0,1.7-0.6,2.2-1.5l1.1-2.2
	l1.2,2.2c0.6,1.1,1.8,1.7,2.8,1.3l2-0.8c1-0.4,1.6-1.6,1.3-2.9l-0.6-2.5l2.3,0.9c0.3,0.1,0.7,0.2,1.1,0.2c0.8,0,1.6-0.4,1.9-1
	l1.1-1.9c0.5-0.9,0.2-2.2-0.8-3l-2-1.6l2.4-0.8c1.2-0.4,2-1.5,1.8-2.5L47,31c-0.2-1-1.2-1.8-2.4-1.8l-2.6,0.1l1.3-2.2
	c0.7-1.1,0.6-2.4-0.3-3.1l-1.7-1.4c-0.8-0.7-2.2-0.6-3.1,0.3l-1.8,1.7L36,22.2c-0.2-1.3-1.1-2.2-2.2-2.2h-2.2
	C30.6,19.9,29.7,20.9,29.5,22.2 M32.2,22.7h1.1l0.5,3.8c0.1,0.5,0.5,1,1,1.1c0.3,0.1,0.6,0.2,0.9,0.3c0.5,0.2,1.1,0.1,1.5-0.3
	l2.7-2.6l0.9,0.7l-2,3.3c-0.3,0.5-0.3,1,0,1.5c0.2,0.2,0.3,0.5,0.5,0.8c0.2,0.5,0.8,0.8,1.3,0.8l3.7-0.2l0.2,1.1L41,34.4
	c-0.5,0.2-0.9,0.6-0.9,1.2c0,0.3-0.1,0.6-0.2,0.9c-0.1,0.5,0.1,1.1,0.5,1.4l3,2.3l-0.6,1l-3.5-1.4c-0.5-0.2-1.1-0.1-1.5,0.3
	c-0.2,0.2-0.4,0.4-0.7,0.6c-0.4,0.3-0.6,0.9-0.5,1.4l0.8,3.8l-1,0.4l-1.8-3.4c-0.3-0.5-0.8-0.8-1.3-0.7l-0.1,0c-0.2,0-0.4,0-0.6,0
	l-0.1,0c-0.6,0-1.1,0.3-1.3,0.8l-1.7,3.4l-1-0.4l0.8-3.8c0.1-0.5-0.1-1.1-0.5-1.4c-0.2-0.2-0.5-0.4-0.7-0.6c-0.4-0.4-1-0.5-1.5-0.3
	l-3.4,1.5l-0.6-1l3-2.4c0.4-0.3,0.6-0.9,0.5-1.4c-0.1-0.3-0.1-0.6-0.2-0.9c-0.1-0.5-0.4-1-1-1.2l-3.6-1.1l0.2-1.1l3.8,0.1
	c0.5,0,1-0.3,1.3-0.8c0.2-0.3,0.3-0.6,0.5-0.8c0.3-0.5,0.3-1,0-1.5l-2-3.2l0.9-0.7l2.8,2.5c0.4,0.4,1,0.5,1.5,0.2
	c0.3-0.1,0.6-0.2,0.9-0.3c0.5-0.2,0.9-0.6,1-1.2L32.2,22.7z"/>
<path class="st0" d="M27.2,34.8c0,3.3,2.7,6,5.9,6c3.3,0,5.9-2.7,5.9-6c0-3.3-2.7-6-5.9-6C29.8,28.8,27.2,31.5,27.2,34.8 M33.1,31.6
	c1.7,0,3.2,1.4,3.2,3.2c0,1.8-1.4,3.2-3.2,3.2c-1.7,0-3.2-1.4-3.2-3.2C29.9,33,31.3,31.6,33.1,31.6"/>
</svg>
