<?xml version="1.0" encoding="utf-8"?>
<!-- Generator: Adobe Illustrator 17.0.0, SVG Export Plug-In . SVG Version: 6.00 Build 0)  -->
<!DOCTYPE svg PUBLIC "-//W3C//DTD SVG 1.1//EN" "http://www.w3.org/Graphics/SVG/1.1/DTD/svg11.dtd">
<svg version="1.1" id="Слой_1" xmlns="http://www.w3.org/2000/svg" xmlns:xlink="http://www.w3.org/1999/xlink" x="0px" y="0px"
	 width="66.5px" height="66.5px" viewBox="0 0 66.5 66.5" style="enable-background:new 0 0 66.5 66.5;" xml:space="preserve">
<style type="text/css">
	.st0{fill:#C7C6C7;}
</style>
<path class="st0" d="M33.2,0C14.9,0,0,14.9,0,33.2c0,18.4,14.9,33.2,33.2,33.2c18.4,0,33.2-14.9,33.2-33.2C66.5,14.9,51.6,0,33.2,0
	 M33.2,64.6C16,64.6,1.9,50.5,1.9,33.2C1.9,16,16,1.9,33.2,1.9c17.3,0,31.3,14.1,31.3,31.3C64.6,50.5,50.5,64.6,33.2,64.6"/>
<path class="st0" d="M33.5,12c-0.4-0.3-0.9-0.3-1.2,0L13.6,28c-0.4,0.3-0.4,0.9-0.1,1.3c0.2,0.2,0.5,0.3,0.7,0.3
	c0.2,0,0.4-0.1,0.6-0.2l3.2-2.7v24.9c0,0.5,0.4,0.9,0.9,0.9h28c0.5,0,0.9-0.4,0.9-0.9V27l2.9,2.5c0.4,0.3,1,0.3,1.3-0.1
	c0.3-0.4,0.3-1-0.1-1.3L33.5,12z M46,50.7H19.9V25.1L32.8,14L46,25.4V50.7z"/>
<path class="st0" d="M30.6,26.1l-0.2,1.7l-1.3-1.1c-0.6-0.6-1.6-0.7-2.1-0.2l-1.1,1c-0.6,0.5-0.6,1.4-0.2,2.1l0.9,1.5l-1.7,0h0
	c-0.9,0-1.6,0.5-1.7,1.2l-0.3,1.5c-0.1,0.7,0.4,1.5,1.2,1.7l1.6,0.5l-1.4,1.1c-0.7,0.5-0.9,1.4-0.6,2.1l0.7,1.3
	c0.2,0.4,0.7,0.7,1.3,0.7c0.3,0,0.5-0.1,0.8-0.2l1.6-0.7l-0.3,1.7c-0.2,0.9,0.2,1.7,0.9,1.9l1.4,0.5c0.1,0.1,0.3,0.1,0.4,0.1
	c0.6,0,1.2-0.4,1.5-1l0.8-1.5l0.8,1.5c0.4,0.8,1.2,1.2,1.9,0.9L37,44c0.7-0.3,1.1-1.1,0.9-2l-0.4-1.7l1.6,0.6
	c0.2,0.1,0.5,0.1,0.7,0.1c0.6,0,1.1-0.3,1.3-0.7l0.7-1.3c0.4-0.6,0.1-1.5-0.6-2.1l-1.4-1.1l1.6-0.6c0.8-0.3,1.3-1,1.2-1.7l-0.3-1.5
	c-0.1-0.7-0.8-1.2-1.7-1.2L39.1,31l0.9-1.5c0.5-0.8,0.4-1.6-0.2-2.1l-1.1-1c-0.6-0.5-1.5-0.4-2.1,0.2l-1.2,1.2L35,26.1
	c-0.1-0.9-0.8-1.5-1.5-1.5H32C31.3,24.5,30.7,25.2,30.6,26.1 M32.4,26.4h0.7l0.4,2.6c0.1,0.4,0.3,0.7,0.7,0.8
	c0.2,0.1,0.4,0.1,0.6,0.2c0.3,0.2,0.8,0.1,1-0.2l1.9-1.8l0.6,0.5l-1.4,2.3c-0.2,0.3-0.2,0.7,0,1c0.1,0.2,0.2,0.3,0.3,0.6
	c0.2,0.3,0.5,0.5,0.9,0.5l2.6-0.1l0.1,0.8l-2.5,0.8c-0.4,0.1-0.6,0.4-0.6,0.8c0,0.2-0.1,0.4-0.1,0.6c-0.1,0.4,0,0.7,0.3,1l2.1,1.6
	l-0.4,0.7l-2.4-1c-0.4-0.1-0.8-0.1-1,0.2c-0.1,0.1-0.3,0.3-0.5,0.4c-0.3,0.2-0.4,0.6-0.4,1l0.6,2.6l-0.7,0.3l-1.2-2.3
	c-0.2-0.3-0.5-0.5-0.9-0.5l-0.1,0c-0.1,0-0.3,0-0.4,0l-0.1,0c-0.4,0-0.7,0.2-0.9,0.5l-1.2,2.3l-0.7-0.3l0.5-2.6
	c0.1-0.4-0.1-0.7-0.4-0.9c-0.2-0.1-0.3-0.3-0.5-0.4c-0.3-0.3-0.7-0.3-1-0.2l-2.4,1l-0.4-0.7l2-1.7c0.3-0.2,0.4-0.6,0.3-1
	c-0.1-0.2-0.1-0.4-0.1-0.6c0-0.4-0.3-0.7-0.7-0.8l-2.5-0.8l0.1-0.8l2.6,0.1c0.4,0,0.7-0.2,0.9-0.5c0.1-0.2,0.2-0.4,0.3-0.6
	c0.2-0.3,0.2-0.7,0-1l-1.4-2.2l0.6-0.5l1.9,1.7c0.3,0.3,0.7,0.3,1,0.2c0.2-0.1,0.4-0.2,0.6-0.2c0.4-0.1,0.6-0.4,0.7-0.8L32.4,26.4z"
	/>
<path class="st0" d="M28.9,34.7c0,2.3,1.8,4.1,4.1,4.1c2.2,0,4.1-1.8,4.1-4.1c0-2.3-1.8-4.1-4.1-4.1C30.8,30.6,28.9,32.5,28.9,34.7
	 M33,32.5c1.2,0,2.2,1,2.2,2.2c0,1.2-1,2.2-2.2,2.2c-1.2,0-2.2-1-2.2-2.2C30.8,33.5,31.8,32.5,33,32.5"/>
</svg>
