<?xml version="1.0" encoding="utf-8"?>
<!-- Generator: Adobe Illustrator 17.0.0, SVG Export Plug-In . SVG Version: 6.00 Build 0)  -->
<!DOCTYPE svg PUBLIC "-//W3C//DTD SVG 1.1//EN" "http://www.w3.org/Graphics/SVG/1.1/DTD/svg11.dtd">
<svg version="1.1" id="Слой_1" xmlns="http://www.w3.org/2000/svg" xmlns:xlink="http://www.w3.org/1999/xlink" x="0px" y="0px"
	 width="66.5px" height="66.5px" viewBox="0 0 66.5 66.5" style="enable-background:new 0 0 66.5 66.5;" xml:space="preserve">
<style type="text/css">
	.st0{fill:#EF7C15;}
</style>
<path class="st0" d="M33.2,0C14.9,0,0,14.9,0,33.2c0,18.4,14.9,33.2,33.2,33.2c18.4,0,33.2-14.9,33.2-33.2C66.5,14.9,51.6,0,33.2,0
	 M33.2,64.6C16,64.6,1.9,50.5,1.9,33.2C1.9,16,16,1.9,33.2,1.9c17.3,0,31.3,14.1,31.3,31.3C64.6,50.5,50.5,64.6,33.2,64.6"/>
<path class="st0" d="M33.6,39.1c5.5,0,10-4.5,10-10c0-5.5-4.5-10-10-10c-5.5,0-10,4.5-10,10C23.6,34.7,28.1,39.1,33.6,39.1 M33.6,21
	c4.5,0,8.1,3.6,8.1,8.1c0,4.5-3.6,8.1-8.1,8.1c-4.5,0-8.1-3.6-8.1-8.1C25.5,24.7,29.2,21,33.6,21"/>
<path class="st0" d="M31.1,33.1c0.3,0.2,0.6,0.3,0.9,0.3c0.3,0,0.7-0.1,1-0.3l2-1.1l2-1.1c0.6-0.3,1-1,1-1.6c0-0.7-0.4-1.3-1-1.6
	l-2-1.1l-2-1.1c-0.3-0.2-0.6-0.3-1-0.3c-0.3,0-0.7,0.1-0.9,0.3c-0.6,0.3-1,1-1,1.6v2.3v2.3C30.2,32.1,30.5,32.7,31.1,33.1
	 M32.1,29.1v-2.3l2,1.1l2,1.1l-2,1.1l-2,1.1V29.1z"/>
<path class="st0" d="M50.8,48.9c0.3-0.6,0.5-1.2,0.5-1.9c0-2.2-1.7-4-3.7-4c-2.1,0-3.7,1.8-3.7,4c0,0.7,0.2,1.3,0.4,1.9
	c-0.3,0.2-0.6,0.4-0.9,0.7c-0.3-0.4-0.8-0.8-1.3-1.2c0.4-0.7,0.6-1.5,0.6-2.4c0-2.6-2-4.7-4.4-4.7c-2.4,0-4.4,2.1-4.4,4.7
	c0,0.9,0.2,1.7,0.6,2.4c-0.5,0.3-1.1,0.8-1.5,1.4c-0.1-0.1-0.3-0.2-0.4-0.3c0.2-0.5,0.4-1,0.4-1.6c0-2-1.5-3.6-3.4-3.6
	c-1.9,0-3.4,1.6-3.4,3.6c0,0.6,0.1,1.1,0.3,1.6c-0.2,0.1-0.3,0.2-0.4,0.3c-0.4-0.5-0.8-0.9-1.4-1.3c0.4-0.7,0.6-1.5,0.6-2.4
	c0-2.6-2-4.7-4.4-4.7c-2.4,0-4.4,2.1-4.4,4.7c0,0.9,0.2,1.7,0.6,2.4c-1.4,0.9-2.1,2.2-2.3,3.7c0,0.5,0.4,1,0.9,1c0,0,0,0,0.1,0
	c0.5,0,0.9-0.4,0.9-0.9c0.1-1.1,0.8-2,2.1-2.6c0.3-0.1,0.5-0.4,0.5-0.7c0.1-0.3,0-0.6-0.2-0.8c-0.5-0.5-0.8-1.3-0.8-2.1
	c0-1.5,1.1-2.8,2.5-2.8c1.4,0,2.5,1.3,2.5,2.8c0,0.8-0.3,1.5-0.8,2.1c-0.2,0.2-0.3,0.5-0.2,0.8c0.1,0.3,0.3,0.6,0.5,0.7
	C24.3,50.2,25,51,25,52c0,0,0,0,0,0c0,0,0,0.1,0,0.1c0,0,0,0.1,0,0.1c0,0,0,0.1,0,0.1c0,0,0,0,0,0.1c0,0,0,0.1,0.1,0.1c0,0,0,0,0,0
	c0,0,0.1,0.1,0.1,0.1c0,0,0,0,0,0c0,0,0.1,0.1,0.1,0.1c0,0,0,0,0,0c0,0,0.1,0,0.1,0.1c0,0,0,0,0,0c0,0,0.1,0,0.1,0c0,0,0.1,0,0.1,0
	c0,0,0,0,0.1,0h0c0,0,0,0,0,0c0,0,0,0,0,0c0,0,0,0,0.1,0c0,0,0.1,0,0.1,0c0,0,0.1,0,0.1,0c0,0,0.1,0,0.1,0c0,0,0.1,0,0.1,0
	c0,0,0.1,0,0.1,0c0,0,0,0,0.1-0.1c0,0,0,0,0.1-0.1c0,0,0,0,0.1-0.1c0,0,0,0,0.1-0.1c0,0,0,0,0-0.1c0,0,0-0.1,0-0.1c0,0,0-0.1,0-0.1
	c0,0,0-0.1,0-0.1c0,0,0-0.1,0-0.1c0,0,0,0,0-0.1c0-0.5,0.2-0.9,1.4-1.4c0.3-0.1,0.5-0.4,0.5-0.7c0.1-0.3,0-0.6-0.2-0.8
	c-0.3-0.3-0.5-0.8-0.5-1.3c0-0.9,0.7-1.7,1.5-1.7c0.8,0,1.5,0.8,1.5,1.7c0,0.5-0.2,0.9-0.5,1.3c-0.2,0.2-0.3,0.5-0.2,0.8
	c0.1,0.3,0.3,0.6,0.5,0.7c1.1,0.5,1.3,1.1,1.4,1.5c0,0,0,0,0,0.1c0,0.5,0.4,1,0.9,1h0c0.5,0,0.9-0.4,1-0.9c0-1.1,0.7-1.9,2.2-2.6
	c0.3-0.1,0.5-0.4,0.5-0.7c0.1-0.3,0-0.6-0.2-0.8c-0.5-0.5-0.8-1.3-0.8-2.1c0-1.5,1.1-2.8,2.5-2.8c1.4,0,2.5,1.3,2.5,2.8
	c0,0.8-0.3,1.5-0.8,2.1c-0.2,0.2-0.3,0.5-0.2,0.8c0.1,0.3,0.3,0.6,0.5,0.7c1.3,0.6,2,1.5,2.2,2.5c0.1,0.5,0.5,0.9,1,0.8
	c0.5-0.1,0.9-0.5,0.8-1v0c0,0,0,0,0,0c0-0.6,0.3-1.2,1.7-1.8c0.3-0.1,0.5-0.4,0.5-0.7c0.1-0.3,0-0.6-0.2-0.8c-0.4-0.4-0.6-1-0.6-1.6
	c0-1.2,0.8-2.1,1.8-2.1c1,0,1.8,0.9,1.8,2.1c0,0.6-0.2,1.2-0.6,1.6c-0.2,0.2-0.3,0.5-0.2,0.8c0.1,0.3,0.3,0.6,0.5,0.7
	c1,0.4,1.6,1.3,1.7,2.2c0,0.5,0.5,0.9,0.9,0.9c0,0,0,0,0.1,0c0.5,0,0.9-0.5,0.9-1C52.5,50.8,51.8,49.7,50.8,48.9"/>
<path class="st0" d="M55.1,14.3H11.6c-0.5,0-0.9,0.4-0.9,0.9v29.3c0,0.5,0.4,0.9,0.9,0.9h1c0.5,0,1-0.4,1-0.9c0-0.5-0.4-1-1-1h-0.1
	V16.2h41.6v27.4h-0.1c-0.5,0-1,0.4-1,1c0,0.5,0.4,0.9,1,0.9h1c0.5,0,1-0.4,1-0.9V15.2C56,14.7,55.6,14.3,55.1,14.3"/>
</svg>
