<?xml version="1.0" encoding="utf-8"?>
<!-- Generator: Adobe Illustrator 17.0.0, SVG Export Plug-In . SVG Version: 6.00 Build 0)  -->
<!DOCTYPE svg PUBLIC "-//W3C//DTD SVG 1.1//EN" "http://www.w3.org/Graphics/SVG/1.1/DTD/svg11.dtd">
<svg version="1.1" id="Слой_1" xmlns="http://www.w3.org/2000/svg" xmlns:xlink="http://www.w3.org/1999/xlink" x="0px" y="0px"
	 width="66.5px" height="66.5px" viewBox="0 0 66.5 66.5" style="enable-background:new 0 0 66.5 66.5;" xml:space="preserve">
<style type="text/css">
	.st0{fill:#EF7C15;}
	.st1{fill-rule:evenodd;clip-rule:evenodd;fill:#EF7C15;}
	.st2{fill:#F49529;}
</style>
<polygon class="st0" points="41,17.4 33.3,20 43.6,25.1 "/>
<path class="st0" d="M29,18.2c1-0.7,1.5-2.1,1-3.3c-0.5-1.5-2.2-2.4-3.7-1.8c-1.5,0.5-2.4,2.2-1.8,3.7c0.4,1.2,1.6,2,2.9,2l1,2.9
	l-10.9,3.7l3.7,10.9l-2.9,1c-0.7-1-2.1-1.5-3.3-1c-1.5,0.5-2.4,2.2-1.8,3.7c0.5,1.5,2.2,2.4,3.7,1.8c1.2-0.4,2-1.6,2-2.9l2.9-1l0,0
	l0,0l0,0l0,0L30,21.2l-0.1,0l0,0L29,18.2z"/>
<path class="st1" d="M49.6,24.3c-1.2,0.4-2,1.6-2,2.9l-2.9,1l-12.5-6.1l-9.4,19.2l2.7,7.9l10.9-3.7l1,2.9c-1,0.7-1.5,2.1-1,3.3
	c0.5,1.5,2.2,2.4,3.7,1.8c1.5-0.5,2.4-2.2,1.8-3.7c-0.4-1.2-1.6-2-2.9-2l-1-2.9l11-3.8l-3.8-11.1l2.9-1c0.7,1,2.1,1.5,3.3,1
	c1.5-0.5,2.4-2.2,1.8-3.7C52.8,24.6,51.1,23.8,49.6,24.3 M36.9,35l-5.6,1.9l-1.9-5.6l5.6-1.9L36.9,35z"/>
<path class="st2" d="M33.2,0C14.9,0,0,14.9,0,33.2c0,18.4,14.9,33.2,33.2,33.2c18.4,0,33.2-14.9,33.2-33.2C66.5,14.9,51.6,0,33.2,0
	 M33.2,64.6C16,64.6,1.9,50.5,1.9,33.2C1.9,16,16,1.9,33.2,1.9c17.3,0,31.3,14.1,31.3,31.3C64.6,50.5,50.5,64.6,33.2,64.6"/>
</svg>
