<?xml version="1.0" encoding="utf-8"?>
<!-- Generator: Adobe Illustrator 17.0.0, SVG Export Plug-In . SVG Version: 6.00 Build 0)  -->
<!DOCTYPE svg PUBLIC "-//W3C//DTD SVG 1.1//EN" "http://www.w3.org/Graphics/SVG/1.1/DTD/svg11.dtd">
<svg version="1.1" id="Слой_1" xmlns="http://www.w3.org/2000/svg" xmlns:xlink="http://www.w3.org/1999/xlink" x="0px" y="0px"
	 width="143px" height="142.7px" viewBox="0 0 143 142.7" style="enable-background:new 0 0 143 142.7;" xml:space="preserve">
<style type="text/css">
	.st0{fill:#1E1E1C;}
	.st1{fill:#EF7C11;}
	.st2{fill:#FFFFFF;}
</style>
<path class="st0" d="M-0.2,71.4c0,0.1,0,0.1,0,0.2c47.7,0,95.4-0.1,143.2-0.1c0,0,0,0,0-0.1H-0.2z"/>
<path class="st1" d="M142.7,71.4c0,39.4-32,71.4-71.4,71.4C32,142.7,0,110.8,0,71.4S32,0,71.4,0C110.8,0,142.7,32,142.7,71.4"/>
<path class="st2" d="M138.3,71.4c0,36.5-29.6,66.1-66.1,66.1S6,107.9,6,71.4S35.6,5.2,72.1,5.2S138.3,34.8,138.3,71.4"/>
<path class="st0" d="M44.3,103.2c0.7,0.4,1.6,0.8,2.8,0.8c1.2,0,2.2-0.4,2.2-1.6c0-2.2-5.1-1.5-5.1-5.1c0-1.7,1.4-3.1,3.8-3.1
	c1.1,0,2.1,0.2,2.9,0.5v1.8c-0.8-0.3-1.7-0.6-2.8-0.6c-1,0-1.9,0.3-1.9,1.3c0,2.2,5.1,1.4,5.1,5.2c0,2.2-1.9,3.2-4.1,3.2
	c-1.5,0-2.8-0.5-3.5-1L44.3,103.2z"/>
<path class="st0" d="M120.6,103.2c0.7,0.4,1.6,0.8,2.8,0.8c1.2,0,2.2-0.4,2.2-1.6c0-2.2-5.1-1.5-5.1-5.1c0-1.7,1.4-3.1,3.8-3.1
	c1.1,0,2.1,0.2,2.9,0.5v1.8c-0.8-0.3-1.7-0.6-2.8-0.6c-1,0-1.9,0.3-1.9,1.3c0,2.2,5.1,1.4,5.1,5.2c0,2.2-1.9,3.2-4.1,3.2
	c-1.5,0-2.8-0.5-3.5-1L120.6,103.2z"/>
<path class="st0" d="M53,100c0-3.2,2-5.7,5.2-5.7c3.1,0,5.2,2.5,5.2,5.7c0,3.2-2,5.7-5.2,5.7C55.1,105.7,53,103.2,53,100 M61.3,100
	c0-2.3-1.2-4-3.1-4c-1.9,0-3.1,1.7-3.1,4c0,2.3,1.2,4,3.1,4C60.1,104,61.3,102.3,61.3,100"/>
<path class="st0" d="M65.8,85.6h2v17.1c0,0.8,0.3,1.1,0.8,1.1c0.2,0,0.5-0.1,0.7-0.1l0.4,1.6c-0.5,0.2-1.2,0.3-1.7,0.3
	c-1.5,0-2.3-0.8-2.3-2.3V85.6z"/>
<path class="st0" d="M71.8,103.6c-0.2-0.6-0.3-1.2-0.3-2.1v-7h2v6.6c0,0.7,0,1.2,0.2,1.6c0.3,0.8,0.9,1.1,1.8,1.1
	c1.2,0,2.2-0.7,2.8-1.4v-8h2v7.5c0,1.8,0.1,2.8,0.2,3.4h-1.8l-0.3-1.2c-0.9,0.8-2.1,1.5-3.5,1.5C73.8,105.7,72.4,105.2,71.8,103.6"
	/>
<path class="st0" d="M84.3,103v-6.8h-1.9v-1.6h1.9v-2.5l2-0.6v3.1h3.3L89,96.2h-2.7v6.4c0,1,0.4,1.4,1.1,1.4c0.7,0,1.3-0.3,1.8-0.6
	l0.7,1.4c-0.7,0.5-1.8,0.9-2.9,0.9C85.3,105.7,84.3,104.7,84.3,103"/>
<path class="st0" d="M91.6,91c0-0.7,0.5-1.3,1.3-1.3c0.8,0,1.3,0.6,1.3,1.3s-0.6,1.3-1.3,1.3S91.6,91.8,91.6,91 M91.9,94.6h2v10.9
	h-2V94.6z"/>
<path class="st0" d="M96.4,100c0-3.2,2-5.7,5.2-5.7c3.1,0,5.2,2.5,5.2,5.7c0,3.2-2,5.7-5.2,5.7C98.5,105.7,96.4,103.2,96.4,100
	 M104.6,100c0-2.3-1.2-4-3.1-4c-1.9,0-3.1,1.7-3.1,4c0,2.3,1.2,4,3.1,4C103.5,104,104.6,102.3,104.6,100"/>
<path class="st0" d="M109,94.6h1.7l0.3,1.3c1.2-1,2.4-1.6,3.8-1.6c1.7,0,3.3,1,3.3,3.9v7.3h-2v-6.6c0-1.5-0.4-2.7-1.9-2.7
	c-1.1,0-2.2,0.6-3.1,1.5v7.9h-2V94.6z"/>
<path class="st0" d="M81.9,85.7c0.6,0.4,1.4,0.7,2.4,0.7c1.1,0,1.9-0.4,1.9-1.4c0-1.9-4.4-1.3-4.4-4.4c0-1.5,1.2-2.7,3.3-2.7
	c0.9,0,1.8,0.2,2.5,0.5V80c-0.7-0.3-1.5-0.5-2.4-0.5c-0.9,0-1.7,0.3-1.7,1.2c0,1.9,4.4,1.2,4.4,4.5c0,1.9-1.6,2.8-3.6,2.8
	c-1.3,0-2.4-0.4-3-0.8L81.9,85.7z"/>
<path class="st0" d="M89.9,78.2h1.5l0.2,1.2c1-0.8,2-1.4,3.2-1.4c1.1,0,2,0.5,2.4,1.6c1.1-1,2.3-1.6,3.5-1.6c1.6,0,2.9,1,2.9,3.3
	v6.3h-1.8v-5.8c0-1.3-0.3-2.3-1.6-2.3c-0.9,0-1.8,0.6-2.7,1.3c0,0.2,0,0.3,0,0.5v6.3h-1.8v-5.8c0-1.3-42.5-24.1-43.8-24.1
	c-0.9,0,40.4,22.3,39.6,23v6.8h-1.8V78.2z"/>
<path class="st0" d="M111.4,86.6c-0.7,0.7-1.6,1.2-2.8,1.2c-1.7,0-3-1.1-3-2.9c0-1.3,0.6-2.1,1.6-2.5c0.7-0.3,1.4-0.4,2.4-0.5
	l1.8-0.1v-0.5c0-1.3-0.8-1.9-2-1.9c-1.1,0-1.9,0.3-2.6,0.7l-0.6-1.2c1.1-0.7,2.3-0.9,3.4-0.9c2.1,0,3.5,1,3.5,3.3v3.4
	c0,1.6,0.1,2.5,0.2,2.9h-1.5L111.4,86.6z M109.7,83.1c-0.8,0-1.3,0.1-1.7,0.3c-0.5,0.3-0.7,0.8-0.7,1.3c0,1,0.6,1.6,1.6,1.6
	c1.1,0,1.9-0.7,2.3-1.1v-2.3L109.7,83.1z"/>
<path class="st0" d="M115.4,78.2h1.5l0.2,1.2c1-1.1,1.8-1.4,2.6-1.4c0.4,0,0.8,0.1,1.1,0.3l-0.6,1.6c-0.3-0.2-0.6-0.2-0.9-0.2
	c-0.7,0-1.3,0.4-2.1,1.2v6.8h-1.8V78.2z"/>
<path class="st0" d="M122.8,85.5v-5.9h-1.6v-1.4h1.6v-2.1l1.8-0.6v2.7h2.8l-0.5,1.4h-2.3v5.6c0,0.8,0.3,1.2,1,1.2
	c0.6,0,1.1-0.3,1.5-0.5l0.6,1.2c-0.6,0.4-1.6,0.7-2.5,0.7C123.7,87.8,122.8,87,122.8,85.5"/>
<rect x="66.1" y="36.2" transform="matrix(0.8944 0.4472 -0.4472 0.8944 26.7817 -25.1922)" class="st0" width="1.4" height="15.8"/>
<rect x="70" y="45.2" transform="matrix(0.6398 0.7685 -0.7685 0.6398 65.1623 -47.3408)" class="st0" width="26.1" height="1.4"/>
<rect x="83.2" y="56.8" transform="matrix(0.7356 0.6774 -0.6774 0.7356 70.7899 -37.8801)" class="st0" width="1.4" height="30"/>
<rect x="60.3" y="58.6" transform="matrix(0.9963 8.622898e-002 -8.622898e-002 0.9963 5.3974 -6.4375)" class="st0" width="33.9" height="1.4"/>
<rect x="53.1" y="70.9" transform="matrix(0.4864 0.8737 -0.8737 0.4864 97.1292 -21.9573)" class="st0" width="28.4" height="1.4"/>
<rect x="51.9" y="61.3" transform="matrix(0.8549 0.5188 -0.5188 0.8549 46.3049 -16.4959)" class="st0" width="1.4" height="26.5"/>
<rect x="41" y="49.3" transform="matrix(0.6874 0.7263 -0.7263 0.6874 51.6744 -20.0418)" class="st0" width="16.2" height="1.4"/>
<rect x="55.9" y="22.9" transform="matrix(0.2458 0.9693 -0.9693 0.2458 78.6524 -26.8672)" class="st0" width="1.4" height="28.5"/>
<rect x="31.2" y="38" transform="matrix(0.6379 0.7701 -0.7701 0.6379 49.2334 -6.867)" class="st0" width="1.4" height="21.9"/>
<rect x="30.5" y="65.7" transform="matrix(0.6759 0.737 -0.737 0.6759 65.3741 1.2815)" class="st0" width="1.4" height="18.6"/>
<rect x="38.5" y="44.1" transform="matrix(0.9953 9.634805e-002 -9.634805e-002 0.9953 5.5493 -3.5191)" class="st0" width="1.4" height="23.3"/>
<rect x="48.6" y="56" transform="matrix(0.41 0.9121 -0.9121 0.41 87.4318 -7.1711)" class="st0" width="1.4" height="16"/>
<rect x="39.9" y="75.9" transform="matrix(0.9264 0.3766 -0.3766 0.9264 32.9817 -15.6321)" class="st0" width="33.1" height="1.4"/>
<rect x="10.6" y="68.5" transform="matrix(3.258494e-002 0.9995 -0.9995 3.258494e-002 92.3471 43.0535)" class="st0" width="26.7" height="1.4"/>
<rect x="40.6" y="86.4" transform="matrix(0.8231 0.5679 -0.5679 0.8231 60.8545 -6.7796)" class="st0" width="1.4" height="15.7"/>
<rect x="45.8" y="85.2" class="st0" width="27.3" height="1.4"/>
<rect x="21" y="91.7" transform="matrix(0.521 0.8535 -0.8535 0.521 93.6265 17.9439)" class="st0" width="19.6" height="1.4"/>
<rect x="20.6" y="60.1" transform="matrix(0.6655 0.7464 -0.7464 0.6655 55.1841 -1.4869)" class="st0" width="17.3" height="1.4"/>
<rect x="33.6" y="78.3" transform="matrix(0.328 0.9447 -0.9447 0.328 102.8101 13.4721)" class="st0" width="16.6" height="1.4"/>
<rect x="25.5" y="84" transform="matrix(0.9819 0.1892 -0.1892 0.9819 16.6697 -5.2321)" class="st0" width="20.4" height="1.4"/>
<path class="st1" d="M76.8,33.6c0,2.7-2.2,4.9-4.9,4.9c-2.7,0-4.9-2.2-4.9-4.9c0-2.7,2.2-4.9,4.9-4.9C74.6,28.7,76.8,30.9,76.8,33.6
	"/>
<path class="st1" d="M101.7,60.7c0,4.2-3.4,7.6-7.6,7.6s-7.6-3.4-7.6-7.6c0-4.2,3.4-7.6,7.6-7.6S101.7,56.5,101.7,60.7"/>
<path class="st1" d="M68.6,57.8c0,4.6-3.7,8.3-8.3,8.3c-4.6,0-8.3-3.7-8.3-8.3c0-4.6,3.7-8.3,8.3-8.3C64.9,49.5,68.6,53.2,68.6,57.8
	"/>
<path class="st1" d="M46.5,41.9c0,3.4-2.7,6.1-6.1,6.1c-3.4,0-6.1-2.7-6.1-6.1c0-3.4,2.7-6.1,6.1-6.1C43.7,35.8,46.5,38.6,46.5,41.9
	"/>
<path class="st1" d="M27.3,55.9c0,2.1-1.7,3.8-3.8,3.8s-3.8-1.7-3.8-3.8c0-2.1,1.7-3.8,3.8-3.8S27.3,53.8,27.3,55.9"/>
<path class="st1" d="M43.6,68.7c0,3-2.4,5.5-5.5,5.5s-5.5-2.4-5.5-5.5c0-3,2.4-5.5,5.5-5.5S43.6,65.7,43.6,68.7"/>
<path class="st1" d="M49.6,87.8c0,2.1-1.7,3.8-3.8,3.8S42,89.9,42,87.8c0-2.1,1.7-3.8,3.8-3.8S49.6,85.7,49.6,87.8"/>
<path class="st1" d="M27.6,82.6c0,1.8-1.5,3.3-3.3,3.3c-1.8,0-3.3-1.5-3.3-3.3c0-1.8,1.5-3.3,3.3-3.3C26.2,79.3,27.6,80.8,27.6,82.6
	"/>
<path class="st1" d="M40.3,100.8c0,1.9-1.6,3.5-3.5,3.5c-1.9,0-3.5-1.6-3.5-3.5c0-1.9,1.6-3.5,3.5-3.5
	C38.8,97.3,40.3,98.8,40.3,100.8"/>
<path class="st1" d="M80.1,82.8c0,3.5-2.8,6.3-6.3,6.3s-6.3-2.8-6.3-6.3c0-3.5,2.8-6.3,6.3-6.3S80.1,79.3,80.1,82.8"/>
</svg>
