<?xml version="1.0" encoding="utf-8"?>
<!-- Generator: Adobe Illustrator 17.0.0, SVG Export Plug-In . SVG Version: 6.00 Build 0)  -->
<!DOCTYPE svg PUBLIC "-//W3C//DTD SVG 1.1//EN" "http://www.w3.org/Graphics/SVG/1.1/DTD/svg11.dtd">
<svg version="1.1" id="Слой_1" xmlns="http://www.w3.org/2000/svg" xmlns:xlink="http://www.w3.org/1999/xlink" x="0px" y="0px"
	 width="142.1px" height="101.4px" viewBox="0 0 142.1 101.4" style="enable-background:new 0 0 142.1 101.4;" xml:space="preserve"
	>
<style type="text/css">
	.st0{fill:#1E1E1C;}
	.st1{fill:#EF7C11;}
</style>
<path class="st0" d="M32.4,98.1c0.9,0.5,2.2,1.1,3.7,1.1c1.6,0,2.9-0.6,2.9-2.1c0-2.9-6.7-1.9-6.7-6.7c0-2.3,1.8-4.1,5-4.1
	c1.4,0,2.7,0.3,3.8,0.7v2.3c-1-0.5-2.2-0.8-3.6-0.8c-1.3,0-2.5,0.4-2.5,1.8c0,2.9,6.7,1.9,6.7,6.8c0,2.9-2.5,4.3-5.5,4.3
	c-2,0-3.6-0.6-4.6-1.3L32.4,98.1z"/>
<path class="st0" d="M132.8,98.1c0.9,0.5,2.2,1.1,3.7,1.1c1.6,0,2.9-0.6,2.9-2.1c0-2.9-6.7-1.9-6.7-6.7c0-2.3,1.8-4.1,5-4.1
	c1.4,0,2.7,0.3,3.8,0.7v2.3c-1-0.5-2.2-0.8-3.6-0.8c-1.3,0-2.5,0.4-2.5,1.8c0,2.9,6.7,1.9,6.7,6.8c0,2.9-2.5,4.3-5.5,4.3
	c-2,0-3.6-0.6-4.6-1.3L132.8,98.1z"/>
<path class="st0" d="M43.9,93.9c0-4.2,2.7-7.5,6.8-7.5c4.1,0,6.8,3.3,6.8,7.5c0,4.2-2.7,7.5-6.8,7.5C46.6,101.4,43.9,98.1,43.9,93.9
	 M54.7,93.9c0-3.1-1.5-5.3-4-5.3c-2.5,0-4.1,2.2-4.1,5.3c0,3.1,1.5,5.3,4,5.3C53.2,99.2,54.7,97,54.7,93.9"/>
<path class="st0" d="M60.7,75h2.7v22.6c0,1.1,0.3,1.4,1.1,1.4c0.2,0,0.7-0.1,0.9-0.2l0.5,2.1c-0.7,0.3-1.5,0.4-2.2,0.4
	c-2,0-3-1.1-3-3V75z"/>
<path class="st0" d="M68.6,98.7c-0.3-0.8-0.4-1.5-0.4-2.7v-9.2h2.7v8.7c0,0.9,0.1,1.5,0.3,2.1c0.4,1,1.1,1.5,2.3,1.5
	c1.5,0,2.9-0.9,3.7-1.8V86.8h2.7v9.9c0,2.4,0.1,3.7,0.3,4.4h-2.4l-0.5-1.6c-1.2,1.1-2.8,1.9-4.7,1.9
	C71.2,101.4,69.4,100.8,68.6,98.7"/>
<path class="st0" d="M85,97.9v-9h-2.5v-2.2H85v-3.3l2.7-0.8v4.1H92l-0.7,2.2h-3.6v8.5c0,1.3,0.5,1.8,1.5,1.8c0.9,0,1.7-0.4,2.3-0.8
	l0.9,1.8c-0.9,0.7-2.4,1.1-3.8,1.1C86.3,101.4,85,100.1,85,97.9"/>
<path class="st0" d="M94.6,82.1c0-0.9,0.7-1.7,1.7-1.7c1,0,1.8,0.7,1.8,1.7c0,1-0.8,1.7-1.8,1.7C95.3,83.8,94.6,83.1,94.6,82.1
	 M95,86.8h2.7v14.3H95V86.8z"/>
<path class="st0" d="M101,93.9c0-4.2,2.7-7.5,6.8-7.5c4.1,0,6.8,3.3,6.8,7.5c0,4.2-2.7,7.5-6.8,7.5C103.7,101.4,101,98.1,101,93.9
	 M111.8,93.9c0-3.1-1.5-5.3-4-5.3c-2.5,0-4.1,2.2-4.1,5.3c0,3.1,1.5,5.3,4,5.3C110.3,99.2,111.8,97,111.8,93.9"/>
<path class="st0" d="M117.6,86.8h2.2l0.3,1.8c1.5-1.3,3.2-2.1,5-2.1c2.3,0,4.4,1.3,4.4,5.1v9.6h-2.7v-8.7c0-2-0.5-3.6-2.5-3.6
	c-1.5,0-2.9,0.8-4.1,1.9v10.4h-2.7V86.8z"/>
<path class="st0" d="M81.9,75.1c0.8,0.5,1.9,0.9,3.2,0.9c1.4,0,2.5-0.5,2.5-1.8c0-2.5-5.8-1.7-5.8-5.8c0-2,1.5-3.5,4.3-3.5
	c1.2,0,2.4,0.3,3.2,0.6v2c-0.9-0.4-1.9-0.7-3.1-0.7c-1.2,0-2.2,0.3-2.2,1.5c0,2.5,5.8,1.6,5.8,5.9c0,2.5-2.1,3.7-4.7,3.7
	c-1.7,0-3.1-0.5-4-1.1L81.9,75.1z"/>
<path class="st0" d="M92.4,65.3h1.9l0.3,1.5c1.3-1,2.7-1.8,4.3-1.8c1.4,0,2.6,0.7,3.2,2.1c1.5-1.3,3-2.1,4.6-2.1
	c2,0,3.8,1.3,3.8,4.4v8.3h-2.3V70c0-1.7-0.4-3-2.1-3c-1.2,0-2.4,0.7-3.5,1.6c0,0.2,0,0.4,0,0.7v8.4h-2.3V70c0-1.7-0.4-3.1-2.1-3.1
	c-1.2,0-2.4,0.7-3.5,1.6v9h-2.3V65.3z"/>
<path class="st0" d="M120.7,76.3c-0.9,0.9-2.1,1.6-3.7,1.6c-2.3,0-4-1.5-4-3.9c0-1.6,0.8-2.8,2.1-3.4c0.9-0.4,1.9-0.6,3.1-0.6
	l2.3-0.1v-0.7c0-1.8-1.1-2.5-2.6-2.5c-1.4,0-2.5,0.4-3.4,1l-0.8-1.6c1.4-0.9,3-1.2,4.5-1.2c2.8,0,4.6,1.3,4.6,4.3v4.5
	c0,2.1,0.1,3.2,0.2,3.9h-2L120.7,76.3z M118.5,71.7c-1,0-1.7,0.2-2.2,0.4c-0.7,0.4-1,1-1,1.8c0,1.3,0.8,2.1,2.1,2.1
	c1.4,0,2.5-0.9,3-1.4v-3L118.5,71.7z"/>
<path class="st0" d="M126,65.3h1.9l0.3,1.5c1.3-1.4,2.3-1.8,3.5-1.8c0.5,0,1.1,0.1,1.5,0.4l-0.8,2c-0.4-0.2-0.8-0.3-1.2-0.3
	c-0.9,0-1.7,0.5-2.8,1.6v9H126V65.3z"/>
<path class="st0" d="M135.8,74.9v-7.8h-2.1v-1.9h2.1v-2.8l2.3-0.7v3.6h3.7l-0.6,1.9h-3.1v7.3c0,1.1,0.4,1.6,1.3,1.6
	c0.8,0,1.5-0.3,2-0.7l0.8,1.6c-0.8,0.6-2,1-3.3,1C136.9,77.9,135.8,76.8,135.8,74.9"/>
<rect x="61" y="10" transform="matrix(0.8945 0.4471 -0.4471 0.8945 15.6415 -25.5469)" class="st0" width="1.8" height="20.8"/>
<rect x="66.3" y="21.7" transform="matrix(0.6399 0.7685 -0.7685 0.6399 47.4406 -55.9795)" class="st0" width="34.4" height="1.8"/>
<rect x="83.6" y="37" transform="matrix(0.7353 0.6778 -0.6778 0.7353 60.8255 -42.2875)" class="st0" width="1.8" height="39.5"/>
<rect x="53.4" y="39.4" transform="matrix(0.9963 8.622713e-002 -8.622713e-002 0.9963 3.7548 -6.3786)" class="st0" width="44.6" height="1.8"/>
<rect x="43.9" y="55.7" transform="matrix(0.4865 0.8737 -0.8737 0.4865 81.5744 -25.6263)" class="st0" width="37.3" height="1.8"/>
<rect x="42.5" y="42.9" transform="matrix(0.855 0.5186 -0.5186 0.855 37.6029 -13.7358)" class="st0" width="1.8" height="34.9"/>
<rect x="28.1" y="27.2" transform="matrix(0.6874 0.7263 -0.7263 0.6874 32.5132 -19.3444)" class="st0" width="21.3" height="1.8"/>
<rect x="47.6" y="-7.6" transform="matrix(0.2463 0.9692 -0.9692 0.2463 47.3782 -38.6898)" class="st0" width="1.8" height="37.5"/>
<rect x="15.2" y="12.3" transform="matrix(0.6374 0.7705 -0.7705 0.6374 26.3763 -2.727)" class="st0" width="1.8" height="28.8"/>
<rect x="14.3" y="48.7" transform="matrix(0.6757 0.7372 -0.7372 0.6757 49.8591 8.5786)" class="st0" width="1.8" height="24.5"/>
<rect x="24.8" y="20.3" transform="matrix(0.9953 9.655942e-002 -9.655942e-002 0.9953 3.5571 -2.3144)" class="st0" width="1.8" height="30.6"/>
<rect x="38" y="36" transform="matrix(0.4104 0.9119 -0.9119 0.4104 65.3603 -8.0598)" class="st0" width="1.8" height="21"/>
<rect x="26.6" y="62.1" transform="matrix(0.9264 0.3765 -0.3765 0.9264 27.2984 -13.5902)" class="st0" width="43.6" height="1.8"/>
<rect x="-12" y="52.5" transform="matrix(3.257612e-002 0.9995 -0.9995 3.257612e-002 58.766 46.0897)" class="st0" width="35.1" height="1.8"/>
<rect x="27.5" y="76" transform="matrix(0.8229 0.5682 -0.5682 0.8229 54.1254 -0.8642)" class="st0" width="1.8" height="20.7"/>
<rect x="34.3" y="74.4" class="st0" width="35.9" height="1.8"/>
<rect x="1.7" y="83" transform="matrix(0.521 0.8535 -0.8535 0.521 78.6232 27.682)" class="st0" width="25.8" height="1.8"/>
<rect x="1.2" y="41.4" transform="matrix(0.6655 0.7464 -0.7464 0.6655 35.8045 4.7758)" class="st0" width="22.8" height="1.8"/>
<rect x="18.4" y="65.3" transform="matrix(0.3279 0.9447 -0.9447 0.3279 82.2666 16.8754)" class="st0" width="21.8" height="1.8"/>
<rect x="7.7" y="72.9" transform="matrix(0.9819 0.1891 -0.1891 0.9819 14.3379 -2.6637)" class="st0" width="26.9" height="1.8"/>
<path class="st1" d="M75.1,6.5c0,3.6-2.9,6.5-6.5,6.5s-6.5-2.9-6.5-6.5C62.1,2.9,65,0,68.6,0S75.1,2.9,75.1,6.5"/>
<path class="st1" d="M107.9,42.2c0,5.5-4.5,10-10,10c-5.5,0-10-4.5-10-10c0-5.5,4.5-10,10-10C103.4,32.2,107.9,36.7,107.9,42.2"/>
<path class="st1" d="M64.4,38.4c0,6-4.9,10.9-10.9,10.9s-10.9-4.9-10.9-10.9c0-6,4.9-10.9,10.9-10.9S64.4,32.3,64.4,38.4"/>
<path class="st1" d="M35.2,17.5c0,4.5-3.6,8.1-8.1,8.1c-4.5,0-8.1-3.6-8.1-8.1c0-4.5,3.6-8.1,8.1-8.1C31.6,9.4,35.2,13,35.2,17.5"/>
<path class="st1" d="M10,35.8c0,2.8-2.2,5-5,5c-2.8,0-5-2.2-5-5c0-2.8,2.2-5,5-5C7.8,30.8,10,33.1,10,35.8"/>
<path class="st1" d="M31.4,52.7c0,4-3.2,7.2-7.2,7.2c-4,0-7.2-3.2-7.2-7.2c0-4,3.2-7.2,7.2-7.2C28.2,45.5,31.4,48.7,31.4,52.7"/>
<path class="st1" d="M39.3,77.9c0,2.8-2.2,5-5,5c-2.8,0-5-2.2-5-5c0-2.8,2.2-5,5-5C37.1,72.9,39.3,75.1,39.3,77.9"/>
<path class="st1" d="M10.5,71c0,2.4-1.9,4.3-4.3,4.3c-2.4,0-4.3-1.9-4.3-4.3c0-2.4,1.9-4.3,4.3-4.3C8.5,66.7,10.5,68.6,10.5,71"/>
<path class="st1" d="M27.2,94.9c0,2.5-2.1,4.6-4.6,4.6c-2.5,0-4.6-2.1-4.6-4.6c0-2.5,2.1-4.6,4.6-4.6C25.1,90.3,27.2,92.4,27.2,94.9
	"/>
<path class="st1" d="M79.4,71.2c0,4.6-3.7,8.3-8.3,8.3s-8.3-3.7-8.3-8.3c0-4.6,3.7-8.3,8.3-8.3S79.4,66.7,79.4,71.2"/>
</svg>
